<svg width="1447" height="368" viewBox="0 0 1447 368" fill="none" xmlns="http://www.w3.org/2000/svg">
<g clip-path="url(#clip0_1_2)" filter="url(#filter0_d_1_2)">
<g opacity="0.071">
<path d="M-57.1001 641.316L-57.1008 641.316C-117.716 580.7 -117.716 482.424 -57.1008 421.809L224.024 140.684C284.639 80.0689 382.916 80.0689 443.531 140.684L443.532 140.685C504.147 201.3 504.147 299.577 443.532 360.192L162.407 641.316C101.792 701.932 3.51514 701.932 -57.1001 641.316Z" fill="#FFF0EC" fill-opacity="0.2"/>
<path d="M1006.9 238.316L1006.9 238.316C946.284 177.7 946.284 79.4238 1006.9 18.8086L1288.02 -262.316C1348.64 -322.931 1446.92 -322.931 1507.53 -262.316L1507.53 -262.315C1568.15 -201.7 1568.15 -103.423 1507.53 -42.808L1226.41 238.316C1165.79 298.932 1067.52 298.932 1006.9 238.316Z" fill="#FFF0EC" fill-opacity="0.2"/>
</g>
</g>
<defs>
<filter id="filter0_d_1_2" x="0" y="0" width="1447" height="368" filterUnits="userSpaceOnUse" color-interpolation-filters="sRGB">
<feFlood flood-opacity="0" result="BackgroundImageFix"/>
<feColorMatrix in="SourceAlpha" type="matrix" values="0 0 0 0 0 0 0 0 0 0 0 0 0 0 0 0 0 0 127 0" result="hardAlpha"/>
<feOffset dy="4"/>
<feGaussianBlur stdDeviation="2"/>
<feComposite in2="hardAlpha" operator="out"/>
<feColorMatrix type="matrix" values="0 0 0 0 0 0 0 0 0 0 0 0 0 0 0 0 0 0 0.25 0"/>
<feBlend mode="normal" in2="BackgroundImageFix" result="effect1_dropShadow_1_2"/>
<feBlend mode="normal" in="SourceGraphic" in2="effect1_dropShadow_1_2" result="shape"/>
</filter>
<clipPath id="clip0_1_2">
<rect width="1439" height="360" fill="white" transform="translate(4)"/>
</clipPath>
</defs>
</svg>
