<svg width="814" height="814" viewBox="0 0 814 814" fill="none" xmlns="http://www.w3.org/2000/svg">
<g clip-path="url(#clip0_2_11)">
<path d="M305.994 572.643C355.45 523.187 355.45 443.004 305.994 393.548C256.538 344.092 176.355 344.092 126.899 393.548L-92.4522 612.899C-141.908 662.355 -141.908 742.538 -92.4522 791.994C-42.9964 841.45 37.1875 841.45 86.6433 791.994L305.994 572.643Z" fill="white" fill-opacity="0.1"/>
<path d="M995.994 283.643C1045.45 234.187 1045.45 154.004 995.994 104.548C946.538 55.0919 866.355 55.0919 816.899 104.548L597.548 323.899C548.092 373.355 548.092 453.538 597.548 502.994C647.004 552.45 727.187 552.45 776.643 502.994L995.994 283.643Z" fill="white" fill-opacity="0.1"/>
</g>
<defs>
<clipPath id="clip0_2_11">
<rect width="814" height="814" fill="white"/>
</clipPath>
</defs>
</svg>
